
<?xml version="1.0" encoding="UTF-8"?>
<svg width="57px" height="57px" viewBox="0 0 57 57" version="1.1" xmlns="http://www.w3.org/2000/svg" xmlns:xlink="http://www.w3.org/1999/xlink">
    <!-- Generator: sketchtool 55.1 (78136) - https://sketchapp.com -->
    <title>B7C32947-57D4-4862-8FD8-37E60AB5668C</title>
    <desc>Created with sketchtool.</desc>
    <g id="like-no-login-FINAL" stroke="none" stroke-width="1" fill="none" fill-rule="evenodd">
        <g id="02_desktop-like-no-login" transform="translate(-157.000000, -724.000000)">
            <g id="alert" transform="translate(139.000000, 716.000000)">
                <g id="icon-like" transform="translate(18.000000, 8.000000)">
                    <circle id="Oval" fill="#FFFFFF" cx="28.5" cy="28.5" r="28.5"></circle>
                    <path d="M17,39 L21,39 L21,26 L17,26 L17,39 Z M40,27.45 C40,26.295 39.04375,25.35 37.875,25.35 L31.18125,25.35 L32.24375,20.52 C32.24375,20.415 32.24375,20.31 32.24375,20.205 C32.24375,19.785 32.03125,19.365 31.8187917,19.05 L30.65,18 L23.6375,24.93 C23.2125,25.245 23,25.77 23,26.4 L23,36.9 C23,38.055 23.95625,39 25.125,39 L34.6875,39 C35.5375,39 36.28125,38.475 36.6,37.74 L39.7875,30.2849588 C39.89375,30.0749588 39.89375,29.7599588 39.89375,29.5499588 L39.89375,27.4499588 L40,27.4499588 C40,27.555 40,27.45 40,27.45 Z" id="Shape" fill="#38D430" fill-rule="nonzero"></path>
                </g>
            </g>
        </g>
    </g>
</svg>