<?xml version="1.0" encoding="UTF-8"?>
<svg width="39px" height="57px" viewBox="0 0 39 57" version="1.1" xmlns="http://www.w3.org/2000/svg" xmlns:xlink="http://www.w3.org/1999/xlink">
    <!-- Generator: Sketch 51.2 (57519) - http://www.bohemiancoding.com/sketch -->
    <title>red-card (1)</title>
    <desc>Created with Sketch.</desc>
    <defs></defs>
    <g id="Page-1" stroke="none" stroke-width="1" fill="none" fill-rule="evenodd">
        <g id="neutral-like-(only)-copy" transform="translate(-1699.000000, -1422.000000)" fill-rule="nonzero">
            <g id="red-card-(1)" transform="translate(1699.000000, 1422.000000)">
                <path d="M18.4220592,40.0802575 C18.4220592,40.0802575 18.4220592,43.1409532 20.8476596,47.7606731 C22.3568568,50.6350852 22.7049681,53.5088199 22.7526174,55.2703852 C22.7526174,55.2703852 22.7526174,55.2707239 22.7526174,55.2708368 C22.7580372,55.4712327 22.759618,55.656726 22.758376,55.8266392 C22.8392218,56.3325403 23.1699444,57 24.3539518,57 L35.3128509,57 L35.3170287,57 C35.403746,56.9993226 36.7898679,56.9635336 36.6088681,55.2702723 C36.6088681,55.2700465 36.6088681,55.2699336 36.6088681,55.2699336 C36.1952672,52.1853033 35.7569384,45.3174228 38.3480694,37.4524171 C42.4476074,25.0084482 25.872295,16 25.872295,16 L25.872295,31.5737589 L23.1642988,27.6966896 C21.9193183,25.9146896 19.4653767,25.4792376 17.6829297,26.7236119 C15.9007084,27.9683249 15.4645249,30.4219619 16.7095054,32.2043006 L22.2105214,40.0801446 L18.4220592,40.0801446 L18.4220592,40.0802575 Z" id="Shape" fill="#F3D2A2"></path>
                <path d="M16.9540257,32.2946542 C15.7249174,30.550875 16.15554,28.15021 17.9150399,26.9325358 C19.6747628,25.7149721 22.0975309,26.1411139 23.3265277,27.8845617 L26,31.6777538 L26,2.0338384 C26,0.910715124 25.0810113,0 23.9473244,0 L2.05267558,0 C0.91910015,0 0,0.910715124 0,2.0338384 L0,37.9661616 C0,39.0892849 0.91910015,40 2.05267558,40 L22.3849099,40 L16.9540257,32.2946542 Z" id="Shape" fill="#EA473B"></path>
                <path d="M23.9799699,0 L12.0223661,0 C10.0846116,4.16783796 9,8.81792702 9,13.7240532 C9,24.5373687 14.2607007,34.112251 22.3443314,40 L22.4424039,40 L17.0978918,32.2945863 C15.8883311,30.5508167 16.3121052,28.150165 18.0436222,26.9324975 C19.7753586,25.7149406 22.1595953,26.14108 23.3690463,27.8845182 L26,31.6776893 L26,2.03382716 C26,0.910710094 25.0956268,0 23.9799699,0 Z" id="Shape" fill="#F75652"></path>
                <path d="M3.67887904,37.9661616 L3.67887904,2.0338384 C3.67887904,0.910715124 4.71812109,0 6,0 L2.32099492,0 C1.03924205,0 0,0.910715124 0,2.0338384 L0,37.9661616 C0,39.0892849 1.03924205,40 2.32099492,40 L6,40 C4.71812109,40.0001105 3.67887904,39.0893953 3.67887904,37.9661616 Z" id="Shape" fill="#D32420"></path>
                <path d="M30.8338719,34.6146552 L26,28 L26,31.0767324 L29.3225707,35.623274 C29.6139447,36.0224097 30.1889339,36.1198266 30.6061203,35.8410362 C31.0234262,35.5625881 31.1252459,35.0134486 30.8338719,34.6146552 Z" id="Shape" fill="#D2A077"></path>
            </g>
        </g>
    </g>
</svg>