<?xml version="1.0" encoding="UTF-8"?>
<svg width="50px" height="50px" viewBox="0 0 50 50" version="1.1" xmlns="http://www.w3.org/2000/svg" xmlns:xlink="http://www.w3.org/1999/xlink">
    <!-- Generator: sketchtool 55.1 (78136) - https://sketchapp.com -->
    <title>0E80FB7B-1893-49B8-94EE-FB5B5BB6FC18</title>
    <desc>Created with sketchtool.</desc>
    <g id="like-no-login-FINAL" stroke="none" stroke-width="1" fill="none" fill-rule="evenodd">
        <g id="01_desktop-like-no-login" transform="translate(-228.000000, -843.000000)">
            <g id="alert" transform="translate(118.000000, 768.000000)">
                <g id="follow" transform="translate(104.000000, 76.000000)">
                    <g id="icon-follow" transform="translate(7.000000, 0.000000)">
                        <circle id="Oval-Copy" stroke="#000000" cx="24" cy="24" r="24"></circle>
                        <g id="cellphone" transform="translate(24.000000, 24.500000) rotate(-90.000000) translate(-24.000000, -24.500000) translate(11.000000, 16.000000)" fill-rule="nonzero">
                            <path d="M24.9835815,1.43651391 C24.8048554,1.54750368 24.7497101,1.78258764 24.8605957,1.9614818 C25.1077576,2.36037003 25.2382813,2.82080898 25.2382813,3.29276384 L25.2382813,13.4996567 C25.2382813,14.894872 24.1042328,16.0301846 22.7101288,16.0301846 L21.5108185,16.0301846 L21.5108185,0.762434465 L22.7101288,0.762434465 C23.1211395,0.762434465 23.5127106,0.857937311 23.874527,1.04596478 C24.0611877,1.14325462 24.2910919,1.07038652 24.388092,0.88374892 C24.4850922,0.696912778 24.4124908,0.466594034 24.2258301,0.369502732 C23.761261,0.127866613 23.2371826,0 22.7101288,0 L3.2898712,0 C1.47583008,0 0,1.47721678 0,3.29296238 L0,12.7056446 C0,13.9161417 0.25390625,14.8822918 0.76171875,15.604095 C1.3657379,16.3297975 2.27464296,16.7926191 3.2898712,16.7926191 L22.7101288,16.7926191 C23.725357,16.7926191 24.6342621,16.3297975 25.2382813,15.604095 C25.7460938,14.8822918 26,13.9161417 26,12.7056446 L26,3.29296238 C26,2.67864672 25.8298035,2.07942086 25.5078583,1.5596153 C25.397171,1.38072114 25.1623077,1.32572262 24.9835815,1.43651391 Z M20.7490997,16.0301846 L5.25090028,16.0301846 L5.25090028,0.762434465 L20.7490997,0.762434465 L20.7490997,16.0301846 Z M0.76171875,13.4996567 L0.76171875,3.29296238 C0.76171875,1.89754847 1.8957672,0.762434465 3.2898712,0.762434465 L4.48918153,0.762434465 L4.48918153,16.0301846 L3.2898712,16.0301846 C1.8957672,16.0301846 0.76171875,14.894872 0.76171875,13.4996567 Z" id="Shape" fill="#000000"></path>
                            <path d="M8.99247897,7.67452225 C8.87947066,8.31770211 8.91846654,8.98291686 9.11623105,9.62530267 C9.44590493,10.695681 10.1677256,11.5848176 11.1651035,12.0981704 C12.4949408,12.7826408 13.9588758,12.5263614 14.3663424,12.4012987 C15.4391255,12.0723638 16.319317,11.3464043 16.8447658,10.357019 C17.9296853,8.31472442 17.1467845,5.77237739 15.0997026,4.69008826 C14.1080945,4.16561878 12.9712469,4.05802508 11.8984638,4.38696001 C11.1280973,4.62299112 10.4580058,5.06487949 9.94628504,5.66101195 C9.93493621,5.66784055 9.63505624,5.92867946 9.36727205,6.49922551 C9.27246626,6.70122053 9.14753523,7.09298611 8.99247897,7.67452225 Z M9.80204029,9.243762 L10.1627517,9.5391483 C10.3260964,9.67473222 10.4229891,9.87403857 10.428162,10.0844616 L10.437513,10.5247619 C9.93235798,9.97230218 9.8157684,9.2965663 9.80204029,9.243762 Z M12.8952448,11.81668 L13.2481968,11.5828325 C13.4282541,11.4647176 13.6500926,11.4311691 13.8572081,11.4907228 L14.3034716,11.6187632 C13.6761561,11.8383178 13.3106697,11.8450672 12.8952448,11.81668 Z M15.2495183,11.0972714 L14.0687008,10.7582123 C13.6471082,10.6369214 13.1950749,10.7054081 12.8270021,10.9467991 L11.8668294,11.582634 C11.592267,11.4829808 11.3151181,11.3076944 11.2170316,11.2421854 L11.1919629,10.066794 C11.1812192,9.63502976 10.9840515,9.22907211 10.6492047,8.95135339 L9.70116843,8.17497176 C9.71489653,7.95660822 9.75011214,7.74003134 9.80601946,7.52762315 L10.9665431,7.12702534 C11.3744077,6.98389794 11.7008982,6.67203509 11.8618555,6.27123879 L12.3493032,5.0547554 C12.5273709,5.01286929 12.7070303,4.98527606 12.8868886,4.97197578 L13.7008269,6.01674599 C13.9640488,6.35262881 14.3597768,6.5608682 14.7875371,6.58826293 L16.1010597,6.6684619 C16.1967587,6.83283008 16.2783316,7.00454321 16.3451816,7.18161619 L15.6052557,8.25556778 C15.3647151,8.60891968 15.2871214,9.04921994 15.3917734,9.46232403 L15.6965775,10.6799985 C15.5600921,10.8326545 15.4104755,10.9720101 15.2495183,11.0972714 L15.2495183,11.0972714 Z M16.2648024,9.80475779 L16.1324951,9.27651651 C16.0811639,9.07323992 16.119165,8.85725853 16.2359534,8.6855454 L16.5636378,8.20990992 C16.5934815,8.74370954 16.4979815,9.2900154 16.2648024,9.80475779 L16.2648024,9.80475779 Z M15.4548432,5.86528109 L14.8352871,5.82756378 C14.625983,5.81406494 14.4317997,5.71202965 14.3030737,5.54805846 L13.9184873,5.05435835 C14.2016049,5.12105848 14.9003464,5.3052779 15.4548432,5.86528109 Z M11.3684389,5.44939786 L11.1525692,5.98796172 C11.0735827,6.18448888 10.9134213,6.33754188 10.7148609,6.40721971 L10.2166694,6.57913139 C10.5081432,6.1116349 10.9014838,5.72671953 11.3684389,5.44939786 Z M14.1706591,7.44338646 L14.5537128,8.22718298 C14.6998937,8.52616099 14.6376425,8.88270377 14.3987809,9.11415776 L13.7728879,9.72127637 C13.6263092,9.86349512 13.324202,10.0579006 12.8824771,9.8479586 L12.1125909,9.43922914 C11.8188369,9.28326662 11.6599272,8.95819524 11.7172063,8.63033523 L11.8673649,7.7706489 C11.924644,7.44278894 12.1843886,7.19101797 12.5135443,7.14420927 L13.3761111,7.02151076 C13.7052668,6.97490124 14.024677,7.14420927 14.1706591,7.44338646 Z M13.2402722,9.17212087 C13.2402722,9.17212087 13.8679552,8.56380711 13.8679552,8.56360794 L13.4847027,7.77961226 L12.6207436,7.90151402 L12.4695905,8.76219632 L13.2402722,9.17212087 Z" id="Shape" fill="#38D430"></path>
                        </g>
                    </g>
                </g>
            </g>
        </g>
    </g>
</svg>