<svg width="248" height="193" xmlns="http://www.w3.org/2000/svg"><g fill="#000" fill-rule="nonzero"><path d="M196.666 66.047V49.445h10v-21h-10v-15h-25v15h-11v21h11v16.424c-29 5.64-51.581 31.564-51.581 62.617 0 35.162 28.69 63.769 63.852 63.769 35.163 0 63.645-28.606 63.645-63.769 0-30.717-21.916-56.427-50.916-62.439zm-12.645 101.207c-21.377 0-38.769-17.392-38.769-38.769 0-21.378 17.392-38.77 38.769-38.77 21.378 0 38.77 17.392 38.77 38.77-.001 21.378-17.392 38.769-38.77 38.769zM127.581 64.404c0-35.162-28.523-63.769-63.686-63.769S0 29.242 0 64.404c0 31.068 22.666 57.003 51.666 62.625v27.99l-8.184-7.057-13.471 16.039 34.295 28.945 35.335-28.831-13.437-16.268-9.537 7.658v-28.674c28.999-6.027 50.914-31.726 50.914-62.427zm-102.373 0c0-21.377 17.392-38.769 38.77-38.769 21.378 0 38.77 17.392 38.77 38.769 0 21.378-17.392 38.77-38.77 38.77-21.378 0-38.77-17.392-38.77-38.77z"/></g></svg>
