<svg id="f685184b-1924-42c5-8abf-cde48b821415" data-name="Capa 1" xmlns="http://www.w3.org/2000/svg" viewBox="0 0 247.6 192.3"><title>mixed new</title><path d="M196.7,65.4V48.8h10v-21h-10v-15h-25v15h-11v21h11V65.2a63.9,63.9,0,1,0,25,.2ZM184,166.6a38.8,38.8,0,1,1,38.8-38.8A38.84,38.84,0,0,1,184,166.6Z"/><path d="M127.6,63.8A63.8,63.8,0,1,0,0,63.8c0,31.1,22.7,57,51.7,62.6v28l-8.2-7.1L30,163.3l34.3,28.9,35.3-28.8L86.2,147.1l-9.5,7.7V126.1A63.7,63.7,0,0,0,127.6,63.8Zm-102.4,0A38.8,38.8,0,1,1,64,102.6,38.84,38.84,0,0,1,25.2,63.8Z"/></svg>
