<?xml version="1.0" encoding="UTF-8"?>
<svg width="90px" height="96px" viewBox="0 0 90 96" version="1.1" xmlns="http://www.w3.org/2000/svg" xmlns:xlink="http://www.w3.org/1999/xlink">
    <!-- Generator: Sketch 52.4 (67378) - http://www.bohemiancoding.com/sketch -->
    <title>gender (1)</title>
    <desc>Created with Sketch.</desc>
    <g id="Page-1" stroke="none" stroke-width="1" fill="none" fill-rule="evenodd">
        <g id="mixed-96-px-" transform="translate(-3.000000, 0.000000)" fill="#222224" fill-rule="nonzero">
            <g id="gender-(1)" transform="translate(3.000000, 0.000000)">
                <path d="M72.7847309,0 L72.7847309,5.86875 L79.4305382,5.86875 L66.4768461,18.13125 C61.8961202,13.44375 55.494368,10.5375 48.4355444,10.5375 C38.9361702,10.5375 30.6382979,15.80625 26.339174,23.56875 C25.9637046,23.55 25.6070088,23.55 25.2315394,23.55 C11.3204005,23.55 0,34.85625 0,48.75 C0,61.65 9.76220275,72.31875 22.2841051,73.78125 L22.2841051,81.6 L13.4793492,81.6 L13.4793492,87.46875 L22.2841051,87.46875 L22.2841051,96 L28.1602003,96 L28.1602003,87.46875 L37.359199,87.46875 L37.359199,81.6 L28.1602003,81.6 L28.1602003,73.78125 C36.4017522,72.825 43.4605757,67.875 47.3091364,60.91875 C47.6846058,60.9375 48.0413016,60.9375 48.416771,60.9375 C62.3279099,60.9375 73.6483104,49.63125 73.6483104,35.7375 C73.6483104,31.0125 72.3341677,26.5875 70.0625782,22.81875 L84.1239049,9.50625 L84.1239049,16.8 L90,16.8 L90,0 L72.7847309,0 Z M25.2315394,68.08125 C14.5682103,68.08125 5.87609512,59.41875 5.87609512,48.75 C5.87609512,38.5125 13.8923655,30.1125 23.9924906,29.45625 C23.4668335,31.4625 23.204005,33.5625 23.204005,35.7375 C23.204005,47.08125 30.7321652,56.68125 41.0763454,59.85 C37.5657071,64.81875 31.7647059,68.08125 25.2315394,68.08125 Z M43.7046308,54.4875 C35.3128911,52.36875 29.0801001,44.775 29.0801001,35.7375 C29.0801001,33.75 29.3804756,31.81875 29.9436796,30 C38.3354193,32.11875 44.5682103,39.7125 44.5682103,48.75 C44.5869837,50.75625 44.2678348,52.66875 43.7046308,54.4875 Z M49.6745932,55.03125 C50.2002503,53.025 50.4630788,50.925 50.4630788,48.75 C50.4630788,37.40625 42.9349186,27.80625 32.5907384,24.6375 C36.1013767,19.66875 41.8836045,16.40625 48.416771,16.40625 C59.0801001,16.40625 67.7722153,25.06875 67.7722153,35.7375 C67.7909887,45.99375 59.7747184,54.39375 49.6745932,55.03125 Z" id="Shape"></path>
            </g>
        </g>
    </g>
</svg>
