<svg id="Layer_1" xmlns="http://www.w3.org/2000/svg" viewBox="0 0 2000 2003"><title>others</title><path d="M1,1331v-51c.28-2.11.64-4.22.82-6.35,1.49-18.25,2.31-36.59,4.53-54.76A678.75,678.75,0,0,1,59.05,1026q90-203.81,280.15-320.09c95.78-58.42,200-91.12,312-99.21a678.6,678.6,0,0,1,185.9,11.88q151.53,31,276,122.94c1.18.87,2.42,1.66,3.88,2.65l121.57-115.57L973.36,359.43,1106.81,217.9l270.34,270L1659.9,201.15H1284V1h716c-.07,2.34-.2,4.68-.2,7q0,350.75,0,701.5v7.15H1799.44V346.37L1520.5,625.2l274.64,273.88L1659,1039.28,1382.69,765.15,1260,883.87c7.12,10.44,14.06,20.23,20.61,30.26,71.77,109.91,112.38,230.11,118.06,361.51a673.39,673.39,0,0,1-22.8,206.81c-42.67,157-128.75,285.17-259.23,382.06C970.17,1973.26,805,2017,623.51,1999.1A652.51,652.51,0,0,1,470.36,1965Q255.23,1889.18,124.69,1702C52,1597.38,11.72,1481,2.76,1353.81,2.23,1346.2,1.59,1338.6,1,1331Zm1198.5-28.16c-.41-279-226.33-499.1-500-498.22-277.6.9-502.75,227.91-498.68,507.89,3.94,272.08,225.35,492.19,500.66,490.93C977.42,1802.18,1199.59,1578.74,1199.5,1302.84Z"/></svg>
