<svg id="Layer_1" data-name="Layer 1" xmlns="http://www.w3.org/2000/svg" viewBox="0 0 1109.54 1650.37"><path class="cls-1" d="M620.52,1317.38a37.56,37.56,0,0,1-.44-3.87q0-102-.08-204c0-3.2,1.09-4.2,4.14-4.72,19.67-3.35,39.56-5.89,58.92-10.59q184.25-44.73,303.78-192.15c67-82.85,106.26-177.7,118.73-283.56,7-59.07,5-117.93-7.76-176C1062.1,280,972.26,155.83,828.24,72.53,720.57,10.26,603.81-10.73,480.57,5A537.44,537.44,0,0,0,309.42,57.13C135,143.46,19.13,313,2.18,506.93c-5.6,64-.48,127.15,16.18,189.21Q66.45,875.32,211.94,990.6c78.92,62.51,168.77,100,268.47,113.67,5.28.73,6.31,2.41,6.3,7.27q-.22,99.74-.1,199.49v6.54H300.47v133.28H486.76v199.52H620.07V1450.68h186.2v-133.3Z"/><path d="M620.52,1317.38H806.27v133.3H620.07v199.69H486.76V1450.85H300.47V1317.57H486.61V1311q0-99.75.1-199.49c0-4.86-1-6.54-6.3-7.27-99.7-13.69-189.55-51.16-268.47-113.67Q66.65,875.49,18.36,696.14C1.7,634.08-3.42,570.92,2.18,506.93,19.13,313,135,143.46,309.42,57.13A537.44,537.44,0,0,1,480.57,5c123.24-15.75,240,5.24,347.67,67.51,144,83.3,233.86,207.42,269.57,370,12.74,58,14.72,116.89,7.76,176-12.47,105.86-51.75,200.71-118.73,283.56q-119.13,147.36-303.78,192.15c-19.36,4.7-39.25,7.24-58.92,10.59-3,.52-4.15,1.52-4.14,4.72q.12,102,.08,204A37.56,37.56,0,0,0,620.52,1317.38ZM133.33,554.21c0,232.18,187.22,420.41,418.72,421.82,232.1,1.42,423.88-186.14,424-421.59.13-232.22-188.15-420.45-421-421C322.62,132.92,133.35,321.77,133.33,554.21Z"/></svg>
