<?xml version="1.0" encoding="UTF-8"?>
<svg width="50px" height="50px" viewBox="0 0 50 50" version="1.1" xmlns="http://www.w3.org/2000/svg" xmlns:xlink="http://www.w3.org/1999/xlink">
    <!-- Generator: sketchtool 55.1 (78136) - https://sketchapp.com -->
    <title>86B9BA81-B1FA-4D7A-90CC-8446FCA4D853</title>
    <desc>Created with sketchtool.</desc>
    <g id="like-no-login-FINAL" stroke="none" stroke-width="1" fill="none" fill-rule="evenodd">
        <g id="01_desktop-like-no-login" transform="translate(-402.000000, -843.000000)">
            <g id="alert" transform="translate(118.000000, 768.000000)">
                <g id="highlights" transform="translate(278.000000, 76.000000)">
                    <g id="icon-highlights" transform="translate(7.000000, 0.000000)">
                        <circle id="Oval-Copy-3" stroke="#000000" cx="24" cy="24" r="24"></circle>
                        <path d="M36.8534918,14.8752405 L31.2930604,12.875047 C30.8580998,12.7187432 29.6780791,12.3564401 29.0812918,13.9246331 L28.6685105,15.0816522 C28.2199959,16.2856862 29.0587018,16.9170875 29.3010311,17.0878257 L26.5456645,24.8122842 C26.2949152,24.7999119 25.9881016,24.849195 25.7118873,25.0471523 C24.8528503,25.6626758 22.4595401,27.0432217 18.7979028,26.5726607 C17.7439755,26.4373899 16.7227012,26.9025895 16.1322801,27.7872112 C15.5451449,28.6668839 15.514135,30.122901 16.4128071,31.2378543 L16.6241265,32.9555462 C16.6818337,33.42487 16.9946029,33.8115053 17.4365459,33.9750263 C18.0277884,34.1940165 18.4734279,33.9298673 18.7087749,33.7055157 L19.2507301,33.1881461 C19.4864877,33.2794951 19.7199864,33.3588842 19.9518422,33.4287879 L20.0450774,34.1861808 C20.1027846,34.6555045 20.4077499,35.0652348 20.8574968,35.2056608 C21.4585967,35.393514 21.8943788,35.1605018 22.1297257,34.935944 L23.0421573,34.0651381 C23.1302584,34.0818407 23.2183595,34.0989558 23.3060498,34.1166895 L23.4662336,35.4168153 C23.5239409,35.886139 23.8336295,36.2810225 24.2784476,36.4362953 C24.8727706,36.6435319 25.315535,36.3911363 25.5506767,36.1665785 L26.4509917,35.3073201 C26.5489503,35.3687693 26.6473196,35.4331055 26.7460996,35.5009471 L26.8871846,36.6474498 C26.9448918,37.1167735 27.2529375,37.516606 27.6996039,37.6667236 C28.2302641,37.8452976 28.7364859,37.6217708 28.9718329,37.397213 L30.103593,36.3171085 C30.6837459,36.081828 31.2484965,35.6508585 31.768067,35.0291489 C31.9081251,34.86171 31.8863566,34.6119951 31.7196011,34.4713629 C31.5528457,34.3307308 31.3041501,34.3525886 31.1640919,34.5200275 C29.6651413,36.3133968 28.3469107,35.7259173 27.6944698,35.2161773 C25.7905416,33.7286107 24.0492616,33.4300251 22.3652781,33.1411312 C20.9657235,32.901108 19.6440018,32.6744881 18.2187767,31.7956402 C17.5636661,31.3916836 17.056212,30.8776133 16.7109954,30.2678635 C16.3415459,29.6158417 16.3700914,28.8532937 16.7873908,28.2282848 C17.2102349,27.5946152 17.942357,27.2609747 18.6978906,27.3580975 C19.1277171,27.4133606 19.5411145,27.4444976 19.9384936,27.4556328 C20.5710142,27.8416495 21.1965524,28.3522143 21.9161474,28.9399 C23.2037787,29.9919606 24.6552903,31.2017683 26.7676628,32.1637171 C28.573427,32.9860647 29.9000775,32.5868508 30.3734411,32.4070396 C31.4581729,31.9954534 32.2556007,31.1885711 32.7798946,30.489122 C32.6844004,31.407149 32.4219455,32.3439407 32.0073159,33.196188 C31.9116163,33.3924957 31.992735,33.6296321 32.1884468,33.7255176 C32.3839531,33.8214032 32.6201216,33.7401582 32.7156158,33.5436444 C33.5257761,31.8789473 33.8063031,29.9096846 33.4662206,28.2763307 C33.3768873,27.8476294 33.1725503,27.5108958 32.9259083,27.2580878 L35.7289194,19.3998019 C35.7714297,19.4031012 37.0259974,19.5191949 37.4860124,18.2532992 L37.8985884,17.0964863 C38.2201882,16.1947496 37.7513425,15.1981583 36.8534918,14.8752405 Z M21.1234429,34.4600217 C20.9595626,34.4012531 20.8490768,34.2624768 20.827719,34.0890579 L20.7728868,33.6438602 C21.2127762,33.7436637 21.64671,33.8207846 22.0761258,33.8946061 L21.5865384,34.362074 C21.460445,34.4822919 21.2873233,34.5189964 21.1234429,34.4600217 Z M25.0074893,35.5925024 C24.8813959,35.7129264 24.7082742,35.7496309 24.5443938,35.6906562 C24.3805135,35.6316814 24.2700277,35.4931113 24.2486699,35.3194863 L24.124014,34.306811 C24.6546742,34.449299 25.1867719,34.6355026 25.7295485,34.9035697 L25.0074893,35.5925024 Z M28.7559955,36.5105293 L28.4284402,36.8231369 C28.3023467,36.9435609 28.1292251,36.9802655 27.9653447,36.9212907 C27.8016697,36.8623159 27.6909786,36.7235396 27.6696208,36.5501208 L27.6164316,36.1177078 C27.9879347,36.335667 28.3705276,36.4661951 28.7559955,36.5105293 Z M17.8062008,32.4703446 C18.0292259,32.6078837 18.2504028,32.730576 18.4697314,32.840896 L18.1653821,33.1314395 C18.0392888,33.2518636 17.866167,33.2885681 17.7022867,33.2295934 C17.5386117,33.1706186 17.4279206,33.0318423 17.4065627,32.8584234 L17.3172295,32.13258 C17.4718685,32.2515606 17.6345166,32.3645612 17.8062008,32.4703446 Z M29.6207827,27.5440949 C29.2312074,28.1142531 28.8293104,28.452224 28.4582179,28.521509 C28.2265675,28.5648122 27.9953278,28.5037754 27.7513556,28.3353055 C27.4385865,28.1189959 27.2825099,27.8884581 27.2738846,27.630495 C27.2669023,27.4119172 27.3601375,27.1597278 27.5511258,26.8807318 C27.7885264,26.5343065 27.8511624,26.1080797 27.7226047,25.7113403 C27.6408698,25.4583261 27.4882845,25.2428414 27.2860011,25.0850942 L30.0222689,17.4138366 L34.965582,19.1919467 L32.2531364,26.7961875 C31.1790835,26.2732503 30.1649968,26.7471106 29.6207827,27.5440949 L29.6207827,27.5440949 Z M30.0947624,31.6661432 C29.1732948,32.0158677 28.1653691,31.9416337 27.0993254,31.4452971 C25.0845007,30.5072681 23.6656419,29.3481869 22.4135386,28.3256138 C22.0241688,28.0074387 21.6460939,27.6987491 21.2717156,27.4162475 C23.7759223,27.1966386 25.4572361,26.2023156 26.1698486,25.6917508 C26.2719145,25.618754 26.641364,25.4733792 26.8763002,25.7400029 C27.1114419,26.0064204 26.9502312,26.3608877 26.9017654,26.4318224 C26.6130238,26.8531002 26.473171,27.2650989 26.4859036,27.6564769 C26.5029488,28.1761148 26.7783417,28.6239932 27.3044839,28.9875335 C27.7236315,29.2772522 28.160235,29.3824171 28.602178,29.2999349 C29.1917776,29.1900274 29.7534477,28.7499848 30.2711699,27.9917671 C30.6153597,27.4875946 31.2528091,27.2739657 31.8181757,27.479965 C32.7419023,27.8164924 32.7607958,28.8025672 32.7813322,28.9906266 C32.5813078,29.3964391 31.6793498,31.0648478 30.0947624,31.6661432 Z M37.1561981,16.8294502 L36.7436221,17.9862631 C36.5686522,18.4770322 36.0285453,18.7331395 35.5399847,18.5574524 L29.9797586,16.5572589 C29.7429741,16.472096 29.1353025,16.0889662 29.4109008,15.3484821 L29.8234767,14.1916692 C29.9082921,13.9541205 30.1641754,13.3651975 31.0271143,13.6206862 L36.5875456,15.6206734 C37.0761062,15.7963605 37.3313735,16.338681 37.1561981,16.8294502 Z" id="Shape" fill="#000000" fill-rule="nonzero"></path>
                        <path d="M20.6585567,24.9575693 C22.3036633,24.1924552 23.5522497,22.8321609 24.1747947,21.1274726 C24.7971341,19.4225786 24.7187761,17.577376 23.9539115,15.9315269 C23.7597647,15.5138926 23.5236624,15.1158029 23.2519802,14.7483671 C23.1224119,14.5730841 22.874998,14.5360525 22.6997723,14.6658689 C22.5245465,14.7956852 22.487527,15.0429741 22.617301,15.218257 C22.8213197,15.4943482 23.0027154,15.7903953 23.1581974,16.1000206 L21.5587482,15.4221365 L20.97857,13.7053101 C21.1751848,13.8283374 21.3656296,13.9620626 21.5480537,14.107926 C21.7183435,14.24412 21.9667856,14.2165521 22.1029352,14.0460009 C22.2390848,13.8756555 22.2113202,13.6271323 22.0410303,13.4909383 C21.0682395,12.7126574 19.8998621,12.2166396 18.6623816,12.0561693 C17.3903495,11.8911729 16.1004247,12.0913493 14.9320473,12.6346853 C13.2869407,13.3997994 12.0383543,14.7600937 11.4158093,16.464782 C10.7934699,18.1696759 10.8718279,20.0148786 11.6366925,21.6607278 C12.7859431,24.1340275 15.2434227,25.5908097 17.8055852,25.590604 C18.7627456,25.590604 19.7349195,25.3871359 20.6585567,24.9575693 Z M19.2481127,24.6228447 L17.3800664,23.2792146 L17.7638354,21.3175682 L19.7423234,20.3973328 L21.491496,21.3694125 L21.3399217,23.6441817 C20.5730005,24.246151 19.6121381,24.5319115 19.2481127,24.6228447 Z M17.1159937,17.3346132 L19.0889288,17.7207706 L19.3316124,19.7171856 L17.508812,20.5650037 L16.1395009,19.0925859 L17.1159937,17.3346132 Z M23.5625329,17.1294993 C23.7636723,17.8201387 23.8375057,18.5352602 23.7830047,19.2464728 L21.8705349,20.6763042 L20.1258868,19.706899 L19.8624312,17.5401386 L21.3230572,16.1802558 L23.5625329,17.1294993 Z M22.1808819,22.8998464 L22.2839196,21.3535711 L23.584539,20.38108 C23.3653011,21.3669436 22.7248632,22.3182444 22.1808819,22.8998464 Z M19.9745181,13.2010631 L20.7856571,15.6013284 L19.3246198,16.9618284 L17.1834515,16.5429598 L16.34208,14.7321143 L18.0147455,12.7949498 C18.1967582,12.801739 19.099829,12.8352731 19.9745181,13.2010631 Z M16.9193789,12.8550233 L15.6934156,14.2749797 L13.8078877,14.3046049 C14.2389595,13.9225622 15.2022898,13.0126134 16.9193789,12.8550233 Z M13.0568026,15.1063392 L15.6263691,15.0660159 L16.467535,16.8760385 L15.4075426,18.7837834 L13.4269979,19.0242831 L12.118769,16.8462075 C12.1313145,16.8093816 12.351375,15.7533637 13.0568026,15.1063392 Z M11.8532567,17.9380227 L12.7898507,19.497259 L12.2660244,21.1313815 C11.834747,20.1117779 11.6957181,19.0139966 11.8532567,17.9380227 Z M12.7840921,22.102021 L13.5191354,19.8089417 L15.5029707,19.5678248 L16.9888933,21.1657386 L16.6055356,23.1253277 L14.2860566,23.6657835 C13.7050557,23.2481492 13.1927466,22.7229176 12.7840921,22.102021 Z M15.2814705,24.2449166 L16.8589137,23.8772751 L18.130123,24.7915443 C18.0213268,24.7975105 16.3819787,24.8516178 15.2814705,24.2449166 Z" id="Shape" fill="#38D430" fill-rule="nonzero"></path>
                    </g>
                </g>
            </g>
        </g>
    </g>
</svg>