<?xml version="1.0" encoding="UTF-8"?>
<svg width="50px" height="50px" viewBox="0 0 50 50" version="1.1" xmlns="http://www.w3.org/2000/svg" xmlns:xlink="http://www.w3.org/1999/xlink">
    <!-- Generator: sketchtool 55.1 (78136) - https://sketchapp.com -->
    <title>CDEF5C8A-48C0-4D7A-92AF-2D4636194E98</title>
    <desc>Created with sketchtool.</desc>
    <g id="like-no-login-FINAL" stroke="none" stroke-width="1" fill="none" fill-rule="evenodd">
        <g id="01_desktop-like-no-login" transform="translate(-315.000000, -843.000000)">
            <g id="alert" transform="translate(118.000000, 768.000000)">
                <g id="hassle" transform="translate(191.000000, 76.000000)">
                    <g id="icon-hassle" transform="translate(7.000000, 0.000000)">
                        <circle id="Oval-Copy-2" stroke="#000000" cx="24" cy="24" r="24"></circle>
                        <path d="M30.2734691,22.759389 L30.2734691,12.7858274 C30.2734691,11.2498271 29.0219736,10 27.4839231,10 C25.9456267,10 24.6941312,11.2498271 24.6941312,12.7858274 L24.6941312,15.9875268 C24.1724288,15.6920194 23.5688184,15.5937626 22.9745548,15.7124077 C22.1564585,15.8752684 21.5115251,16.4223134 21.1885665,17.1277976 C21.0906704,17.03691 20.4260595,16.2712435 18.9935301,16.5055861 C18.1695305,16.6404436 17.5295166,17.2164744 17.2068039,17.9226955 C16.6376292,17.3940737 15.8310936,17.1359038 15.0125054,17.2990102 C13.6596702,17.5687253 12.7786057,18.8873322 13.0486808,20.2386095 L13.9376164,24.687434 C14.0684724,25.3420703 14.5360614,26.0333072 15.0816229,26.3256214 L15.0816229,28.3204811 C15.0816229,29.6317187 15.6190674,30.910286 16.5562131,31.8284963 L17.4677781,32.721651 C17.8763342,33.1220477 18.1114816,33.6781815 18.1141873,34.2495451 C18.108284,34.4057735 18.0974613,35.4608064 18.8198752,36.225736 C19.3049281,36.7396193 19.9909385,37 20.8584747,37 L27.7247278,37 C28.8935773,37 29.9352603,36.2608628 30.3170058,35.1606318 C31.4592906,31.8670621 31.6644295,27.6358765 31.6644295,25.4066742 C31.6641836,23.6196277 30.2734691,22.759389 30.2734691,22.759389 Z M27.4839231,10.9432658 C28.5012551,10.9432658 29.3289442,11.7698516 29.3289442,12.7858274 L29.3289442,22.0593089 C29.3289442,22.0593089 26.5866245,20.0764857 26.3866509,20.0192511 L25.6386561,16.9256341 L25.6386561,12.7858274 C25.6386561,11.7698516 26.4663452,10.9432658 27.4839231,10.9432658 Z M23.1592783,16.6372503 C24.3647773,16.450071 24.9103389,17.450817 24.9917549,17.8583373 L25.4236783,20.0202336 C24.6333766,20.2047109 24.1549649,21.0290858 24.1478318,21.6886349 C24.1350414,21.8792532 24.09667,23.0254194 24.908863,24.0649769 C23.8634905,24.4420376 22.9939865,23.7571873 22.8259889,22.9161087 L21.9368073,18.4670385 C21.7688098,17.6259599 22.3109277,16.7691601 23.1592783,16.6372503 Z M19.1782536,17.4306743 C20.3006147,17.2189309 20.9290681,18.2442411 21.0104842,18.6517614 L21.8996659,23.1005859 C21.9810819,23.5081062 21.9478759,24.6923469 20.6769489,24.9303741 C19.8330257,25.0885676 19.0129617,24.5506114 18.8447182,23.7095327 L17.9557826,19.2604625 C17.787785,18.4193839 18.3345764,17.5900961 19.1782536,17.4306743 L19.1782536,17.4306743 Z M14.8639394,24.5029568 L13.9747579,20.0538866 C13.8067603,19.212808 14.3565033,18.3985043 15.1974748,18.2240984 C16.1651209,18.0234088 16.8818775,18.7062939 17.0297055,19.4451854 L17.9186411,23.89401 C18.0000572,24.3015303 17.9176572,24.7161742 17.6866914,25.0617927 C17.4559715,25.4074111 17.1039884,25.6424906 16.6961701,25.7237982 C16.2881059,25.8051057 15.8729085,25.7228156 15.5268286,25.4921577 C15.1807488,25.2617453 14.9453555,24.9102314 14.8639394,24.5029568 Z M29.4243806,34.8518596 C29.1744751,35.5725736 28.4914163,36.0567342 27.7247278,36.0567342 L20.8584747,36.0567342 C20.2644572,36.0567342 19.8113804,35.8975581 19.5117889,35.5836275 C19.0257521,35.0741657 19.0574823,34.2922868 19.0577283,34.2868827 C19.0584662,34.2777939 19.0587121,34.2684596 19.0587121,34.2593708 C19.0587121,33.4330306 18.7197655,32.6270788 18.1291914,32.048346 L17.2176266,31.1551912 C16.4605308,30.4131064 16.0261478,29.3799356 16.0261478,28.3204811 L16.0261478,26.6714855 C16.1449513,26.6889261 17.9912023,26.8019214 18.6686037,25.2332508 C19.1234023,25.6547727 19.9496156,26.022499 20.8619183,25.8554623 C22.2341851,25.6041705 22.5942852,24.561174 22.6496284,24.4398267 C23.1472258,25.0676881 24.4899761,25.4432749 25.4802514,24.8424342 L26.2149638,25.8444085 C25.8907753,26.0880854 25.5933976,26.3636959 25.3265201,26.6678009 C25.1545871,26.8635776 25.1742647,27.1615415 25.3703028,27.3332454 C25.5663409,27.5049492 25.8649485,27.4852979 26.0366355,27.2895211 C26.3539369,26.9281815 26.7231379,26.6142509 27.1341538,26.3565723 C27.2453322,26.2868099 27.3223208,26.1743058 27.3469178,26.0455894 C27.3715148,25.9171185 27.3415065,25.7839805 27.264026,25.6783544 L25.6895719,23.5316878 C25.6853904,23.5257924 25.6809629,23.5201426 25.6767814,23.5147385 C24.9376415,22.5825266 25.0923566,21.7225336 25.0923566,21.7075494 C25.0923566,21.3943557 25.2596162,21.1234124 25.5397761,20.9824139 C25.819936,20.8416609 26.1374833,20.8689272 26.3896025,21.0558608 L29.8157189,23.5948178 C30.3858774,24.0170767 30.7238402,24.6925925 30.7196971,25.4012701 C30.7071142,27.5722551 30.5223908,31.6867608 29.4243806,34.8518596 L29.4243806,34.8518596 Z" id="Shape" fill="#000000" fill-rule="nonzero"></path>
                        <path d="M24.6733926,29.7194596 L24.351954,29.7194596 L24.4464375,29.2152161 C24.4939227,28.9627309 24.3266285,28.7196957 24.0726434,28.6724457 C23.8193888,28.6251955 23.5746571,28.7919036 23.5274154,29.0443888 L23.4005446,29.7194596 L22.2879288,29.7194596 L22.3824122,29.2152161 C22.4298975,28.9627309 22.2626034,28.7196957 22.0088617,28.6724457 C21.7553635,28.6251955 21.5108754,28.7916613 21.4633902,29.0443888 L21.3367628,29.7194596 L20.6188834,29.7194596 C20.3607584,29.7194596 20.1513363,29.9276023 20.1513363,30.1846914 C20.1513363,30.4415381 20.3607584,30.6499232 20.6188834,30.6499232 L21.1619198,30.6499232 L20.9887812,31.5728753 L20.3534531,31.5728753 C20.0950846,31.5728753 19.885906,31.7810181 19.885906,32.0381071 C19.885906,32.2949539 20.0950846,32.5033389 20.3534531,32.5033389 L20.8139381,32.5033389 L20.7194547,33.0073401 C20.6719694,33.2600676 20.8363414,33.522972 21.0930053,33.5501105 C21.4395257,33.5869414 21.5965924,33.4020602 21.6384768,33.1781674 L21.7653476,32.5033389 L22.8779634,32.5033389 L22.7832364,33.0073401 C22.7357511,33.2600676 22.9008537,33.5171566 23.1570305,33.5501105 C23.5167008,33.5966337 23.6603741,33.4020602 23.702502,33.1781674 L23.8291294,32.5033389 L24.4077188,32.5033389 C24.6660872,32.5033389 24.8752658,32.2949539 24.8752658,32.0381071 C24.8752658,31.7810181 24.6660872,31.5728753 24.4077188,31.5728753 L24.0039724,31.5728753 L24.1771109,30.6499232 L24.6733926,30.6499232 C24.9317611,30.6499232 25.1409396,30.4415381 25.1409396,30.1846914 C25.1409396,29.9278447 24.9317611,29.7194596 24.6733926,29.7194596 L24.6733926,29.7194596 Z M23.0525629,31.5728753 L21.9399472,31.5728753 L22.1133292,30.6499232 L23.225945,30.6499232 L23.0525629,31.5728753 Z" id="Shape" fill="#38D430" fill-rule="nonzero"></path>
                        <path d="M27.7739824,28.7067074 C27.6117406,28.6308403 27.4209936,28.658561 27.2860692,28.7779544 L26.0237661,29.8948063 C25.8330191,30.0633189 25.8121153,30.3582767 25.9767326,30.5532942 C26.1415874,30.7483116 26.4294894,30.7699532 26.6199988,30.6011975 L27.1281032,30.1518306 L27.1281032,33.2713803 C27.1281032,33.5291341 27.3323901,33.738255 27.5841856,33.738255 C27.8362187,33.738255 28.0402685,33.5291341 28.0402685,33.2713803 L28.0402685,29.1312717 C28.0405056,28.9484124 27.9362243,28.7825746 27.7739824,28.7067074 L27.7739824,28.7067074 Z" id="Path" fill="#38D430" fill-rule="nonzero"></path>
                    </g>
                </g>
            </g>
        </g>
    </g>
</svg>