<?xml version="1.0" encoding="UTF-8"?>
<svg width="53px" height="57px" viewBox="0 0 53 57" version="1.1" xmlns="http://www.w3.org/2000/svg" xmlns:xlink="http://www.w3.org/1999/xlink">
    <!-- Generator: Sketch 51.2 (57519) - http://www.bohemiancoding.com/sketch -->
    <title>clapping (1)</title>
    <desc>Created with Sketch.</desc>
    <defs></defs>
    <g id="Page-1" stroke="none" stroke-width="1" fill="none" fill-rule="evenodd">
        <g id="neutral-like-(only)-copy" transform="translate(-1542.000000, -1422.000000)" fill-rule="nonzero">
            <g id="clapping-(1)" transform="translate(1542.000000, 1422.000000)">
                <g id="Group" transform="translate(26.500000, 28.500000) scale(-1, 1) rotate(-180.000000) translate(-26.500000, -28.500000) ">
                    <g id="Shape">
                        <g>
                            <path d="M1.0623342,21.0185668 C1.0623342,21.0185668 -1.1154715,23.0459344 0.901411917,25.236579 C2.91829534,27.4240491 5.0976114,25.3951633 5.0976114,25.3951633 L15.2068808,15.9825134 C15.0474689,16.1332306 15.909886,17.3628458 15.7817798,17.4822327 L1.74968653,30.5459109 C1.74968653,30.5459109 -0.428119171,32.5732785 1.58876425,34.7607486 C3.60715803,36.949875 5.78496373,34.9225074 5.78496373,34.9225074 L18.9826503,22.6344985 C18.9513446,22.6627924 19.9340415,23.7824062 19.9153679,23.7996586 L4.61484456,38.0458874 C4.61484456,38.0458874 2.43703886,40.073255 4.45392228,42.2622434 C6.47231606,44.4497135 8.65012176,42.4224839 8.65012176,42.4224839 L23.9491347,28.1762551 C23.9679456,28.1605209 25.0161373,29.218992 25.047443,29.1891798 L10.7466425,42.5041914 C10.7466425,42.5041914 8.56883679,44.531559 10.5857202,46.7205474 C12.604114,48.9080175 14.7819197,46.880788 14.7819197,46.880788 C14.7819197,46.880788 25.4237979,36.9718201 29.9028472,32.8025288 C34.3802487,28.6332375 35.3894456,29.7277317 35.3894456,29.7277317 L31.346342,33.4919359 L26.6768497,37.837064 C26.6768497,37.837064 24.499044,39.8644316 26.5174378,42.0534199 C28.5358316,44.2440645 30.7119896,42.2166969 30.7119896,42.2166969 L42.6895777,31.0640359 C49.9040311,24.3460776 50.3366813,13.019098 43.6519534,5.76562419 C36.9687358,-1.48784959 25.6988212,-1.91971242 18.4828575,4.7967277 C18.1016969,5.15157569 17.4173653,5.83780835 17.4471606,5.870795 L17.395671,5.8111706 L1.0623342,21.0185668 Z" fill="#D2A077"></path>
                            <path d="M5.59287306,24.079148 C5.59287306,24.079148 3.41506736,26.1065155 5.43195078,28.2955039 C7.4488342,30.4861485 9.62650259,28.4587809 9.62650259,28.4587809 L19.7372824,19.0429565 C19.5763601,19.1936738 20.4402876,20.423289 20.3121813,20.5426758 L6.28022539,33.606492 C6.28022539,33.606492 4.10241969,35.6338596 6.11930311,37.822848 C8.13618653,40.0118363 10.3138549,37.9846068 10.3138549,37.9846068 L23.5115415,25.6950796 C23.4818834,25.7248918 24.464443,26.8429873 24.4457694,26.8602397 L9.14538342,41.1081248 C9.14538342,41.1081248 6.96757772,43.1338361 8.98446114,45.3229625 C11.0013446,47.5120889 13.179013,45.4847213 13.179013,45.4847213 L28.4780259,31.2400107 C28.4983472,31.221102 29.5450285,32.2795731 29.5763342,32.2512791 L15.277044,45.5662908 C15.277044,45.5662908 13.0992383,47.5936584 15.1161218,49.7811285 C17.1330052,51.9702549 19.3106736,49.9428873 19.3106736,49.9428873 C19.3106736,49.9428873 29.9541995,40.0324012 34.4331114,35.8631099 C38.9088653,31.6953368 39.9197098,32.789969 39.9197098,32.789969 L35.8750959,36.5541733 L31.2072513,40.8993014 C31.2072513,40.8993014 29.0310933,42.9266689 31.046329,45.1156573 C33.0647228,47.3047837 35.2425285,45.2774161 35.2425285,45.2774161 L47.2186062,34.1262733 C54.4345699,27.4083149 54.8657098,16.0798171 48.1824922,8.82786155 C41.4976269,1.57438778 30.2293601,1.14100673 23.0133964,7.86048328 C22.6305881,8.21381305 21.9479041,8.90004572 21.9776995,8.93151415 L21.9245622,8.87188976 L5.59287306,24.079148 Z" fill="#F3D2A2"></path>
                            <g transform="translate(26.362694, 40.853755)" fill="#0BD280">
                                <path d="M10.3404922,5.03922786 C10.0078005,5.03922786 9.67030311,5.14605491 9.38759067,5.36591988 C8.70339637,5.89674266 8.57831088,6.88289157 9.1063886,7.56912424 L13.760228,13.622795 C14.2836373,14.3090277 15.2661969,14.4377998 15.9505285,13.9054588 C16.6332124,13.3762923 16.7581606,12.3900053 16.2317306,11.7037727 L11.5778912,5.65010191 C11.2715622,5.24970751 10.8091166,5.03922786 10.3404922,5.03922786"></path>
                                <path d="M1.6840544,4.18971819 C0.821637306,4.18971819 0.121790155,4.89320329 0.121790155,5.76010341 L0.121790155,13.6118915 C0.121790155,14.4787916 0.821637306,15.1822767 1.6840544,15.1822767 C2.54798187,15.1822767 3.24631865,14.4787916 3.24631865,13.6118915 L3.24631865,5.76010341 C3.24631865,4.89320329 2.54798187,4.18971819 1.6840544,4.18971819"></path>
                                <path d="M16.3956736,0.00151821387 C15.7583005,0.00151821387 15.1584119,0.397219955 14.9286995,1.03638799 C14.6318446,1.8513928 15.0521373,2.75127956 15.8614171,3.04802137 L23.0210855,5.66583613 C23.8350337,5.96257793 24.7286192,5.54023844 25.0223161,4.72675184 C25.319171,3.91174704 24.8988782,3.01034206 24.0895984,2.71360026 L16.9299301,0.0974417263 C16.7534922,0.0329866467 16.5722487,0.00151821387 16.3956736,0.00151821387"></path>
                            </g>
                        </g>
                    </g>
                </g>
            </g>
        </g>
    </g>
</svg>