<?xml version="1.0" encoding="UTF-8"?>
<svg width="21px" height="20px" viewBox="0 0 21 20" version="1.1" xmlns="http://www.w3.org/2000/svg" xmlns:xlink="http://www.w3.org/1999/xlink">
    <defs>
        <path d="M15.225,0.35 C18.459,0.35 21,2.85572207 21,6.04482289 C21,9.95871935 17.43,13.1478202 12.0225,17.9935967 L10.5,19.35 L8.9775,17.9832425 C3.57,13.1478202 0,9.95871935 0,6.04482289 C0,2.85572207 2.541,0.35 5.775,0.35 C7.602,0.35 9.3555,1.1886921 10.5,2.5140327 C11.6445,1.1886921 13.398,0.35 15.225,0.35 Z M14.0935714,5 L10.5,8.59357143 L6.90642857,5 L6,5.90642857 L9.59357143,9.5 L6,13.0935714 L6.90642857,14 L10.5,10.4064286 L14.0935714,14 L15,13.0935714 L11.4064286,9.5 L15,5.90642857 L14.0935714,5 Z" id="path-1"></path>
    </defs>
    <g id="Layer-1" stroke="none" stroke-width="1" fill="none" fill-rule="evenodd">
        <mask id="mask-2" fill="white">
            <use xlink:href="#path-1"></use>
        </mask>
        <use id="Combined-Shape" fill="#000000" fill-rule="nonzero" xlink:href="#path-1"></use>
    </g>
</svg>