<?xml version="1.0" encoding="UTF-8"?>
<svg width="24px" height="24px" viewBox="0 0 24 24" version="1.1" xmlns="http://www.w3.org/2000/svg" xmlns:xlink="http://www.w3.org/1999/xlink">
    <!-- Generator: Sketch 48.2 (47327) - http://www.bohemiancoding.com/sketch -->
    <title>icon/lineup_white</title>
    <desc>Created with Sketch.</desc>
    <defs></defs>
    <g id="Symbols" stroke="none" stroke-width="1" fill="none" fill-rule="evenodd">
        <g id="icon/lineup_white" fill="#FFFFFF">
            <g transform="translate(1.000000, 3.000000)" id="Group">
                <g transform="translate(0.015174, 0.459285)">
                    <path d="M20,5.8 L18,5.8 L18,11.2 L20,11.2 L20,5.8 Z M18,4 L22,4 L22,13 L18,13 C16.8954305,13 16,12.1941125 16,11.2 L16,5.8 C16,4.80588745 16.8954305,4 18,4 Z" id="Rectangle-6" fill-rule="nonzero"></path>
                    <path d="M4,5.8 L2,5.8 L2,11.2 L4,11.2 L4,5.8 Z M2,4 L6,4 L6,13 L2,13 C0.8954305,13 0,12.1941125 0,11.2 L0,5.8 C0,4.80588745 0.8954305,4 2,4 Z" id="Rectangle-6" fill-rule="nonzero" transform="translate(3.000000, 8.500000) scale(-1, 1) translate(-3.000000, -8.500000) "></path>
                    <circle id="Oval" cx="11.0024414" cy="8.51689453" r="3.5"></circle>
                    <path d="M1.91304348,1.88888889 L1.91304348,15.1111111 L20.0869565,15.1111111 L20.0869565,1.88888889 L1.91304348,1.88888889 Z M22,-1.77635684e-15 L22,17 L0,17 L0,-1.77635684e-15 L22,-1.77635684e-15 Z" id="Rectangle-5" fill-rule="nonzero"></path>
                    <polygon id="Line" fill-rule="nonzero" points="10 0 12 0 12 16 10 16"></polygon>
                </g>
            </g>
        </g>
    </g>
</svg>
